<?xml version="1.0" encoding="iso-8859-1"?>
<!-- Generator: Adobe Illustrator 19.0.0, SVG Export Plug-In . SVG Version: 6.00 Build 0)  -->
<svg version="1.1" id="Layer_1" xmlns="http://www.w3.org/2000/svg" xmlns:xlink="http://www.w3.org/1999/xlink" x="0px" y="0px"
	 viewBox="0 0 512 512" style="enable-background:new 0 0 512 512;" xml:space="preserve">
<path style="fill:#36CC6B;" d="M141.509,195.015c2.538-7.661,3.925-15.926,3.925-24.546c0-39.752-29.418-71.976-65.709-71.976
	c-36.289,0-65.709,32.224-65.709,71.976c0,8.62,1.388,16.886,3.925,24.546c-10.263,14.489-16.389,32.671-16.389,52.43
	c0,47.291,35.001,85.626,78.173,85.626c43.173,0,78.173-38.336,78.173-85.626C157.899,227.685,151.772,209.504,141.509,195.015z"/>
<path style="opacity:0.1;fill:#231F20;enable-background:new    ;" d="M19.075,247.445c0-17.018,4.554-32.86,12.371-46.186
	c0.102-0.194,0.218-0.396,0.352-0.615c0.011-0.019,0.021-0.036,0.033-0.055c0.019-0.028,0.031-0.055,0.05-0.083
	c2.898-4.584,2.35-9.25,1.966-11.095c-0.059-0.235-0.114-0.472-0.169-0.707c-0.021-0.073-0.036-0.125-0.036-0.125l0.009,0.005
	c-1.371-5.788-2.112-11.855-2.112-18.114c0-36.495,24.804-66.625,56.948-71.32c-2.868-0.418-5.788-0.656-8.761-0.656
	c-36.289,0-65.709,32.224-65.709,71.976c0,8.62,1.388,16.886,3.925,24.546c-10.263,14.489-16.389,32.671-16.389,52.43
	c0,47.291,35.001,85.626,78.173,85.626c2.964,0,5.884-0.197,8.761-0.549C49.441,327.75,19.075,291.49,19.075,247.445z"/>
<path style="fill:#B0E046;" d="M327.965,195.015c2.538-7.661,3.925-15.926,3.925-24.546c0-39.752-29.418-71.976-65.709-71.976
	c-36.289,0-65.709,32.224-65.709,71.976c0,8.62,1.388,16.886,3.925,24.546c-10.263,14.489-16.389,32.671-16.389,52.43
	c0,47.291,35.001,85.626,78.173,85.626c43.173,0,78.173-38.336,78.173-85.626C344.354,227.685,338.228,209.504,327.965,195.015z"/>
<path style="opacity:0.1;fill:#231F20;enable-background:new    ;" d="M205.531,247.445c0-17.293,4.693-33.378,12.745-46.837
	c2.639-4.899,2.36-9.257,1.986-11.36c-0.095-0.386-0.175-0.775-0.265-1.164c-0.031-0.104-0.054-0.174-0.054-0.174l0.015,0.002
	c-1.272-5.588-1.961-11.426-1.961-17.444c0-36.495,24.804-66.625,56.948-71.32c-2.868-0.418-5.788-0.656-8.762-0.656
	c-36.289,0-65.709,32.224-65.709,71.976c0,8.62,1.388,16.886,3.925,24.546c-10.263,14.489-16.389,32.671-16.389,52.43
	c0,47.291,35.001,85.626,78.173,85.626c2.964,0,5.884-0.197,8.762-0.549C235.897,327.75,205.531,291.49,205.531,247.445z"/>
<path style="fill:#36CC6B;" d="M492.225,381.193c-3.04,0-5.956,0.526-8.669,1.484c-0.503-22.555-18.93-40.685-41.604-40.685
	c-20.452,0-37.446,14.752-40.954,34.194c-6.017-5.923-14.268-9.579-23.378-9.579c-17.64,0-32.07,13.705-33.244,31.049
	c-1.604-0.43-3.282-0.681-5.023-0.681c-10.709,0-19.39,8.682-19.39,19.391c0,8.597,5.6,15.876,13.347,18.417
	c-13.166,4.31-25.907,9.565-38.133,15.694c-12.3-8.166-25.269-15.348-38.863-21.513c-36.318-16.473-75.205-24.825-115.581-24.825
	c-47.928,0-95.241,12.357-136.825,35.737C1.494,441.233,0,443.788,0,446.558v57.776C0,508.568,3.432,512,7.666,512h326.462h10.938
	h145.127c0,0,13.593-0.256,13.593-15.041v-61.202v-37.365C503.786,382.512,492.225,381.193,492.225,381.193z"/>
<path style="fill:#8C6644;" d="M297.646,269.603c-2.442-3.822-7.522-4.941-11.344-2.499l-11.907,7.607v-33.827
	c0-4.537-3.677-8.214-8.214-8.214c-4.537,0-8.214,3.677-8.214,8.214v118.614l-18.302-9.591c-4.019-2.104-8.983-0.555-11.089,3.463
	c-2.105,4.018-0.554,8.983,3.463,11.089l25.927,13.586v80.023c0,4.537,3.677,8.214,8.214,8.214c4.537,0,8.214-3.677,8.214-8.214
	V294.207l20.752-13.258C298.969,278.505,300.089,273.426,297.646,269.603z"/>
<path style="fill:#B0E046;" d="M350.832,499.282c-26.49-30.229-58.29-53.887-94.518-70.318
	c-36.317-16.473-75.205-24.825-115.581-24.825c-47.928,0-95.241,12.357-136.825,35.737C1.494,441.233,0,443.788,0,446.558v57.776
	C0,508.568,3.432,512,7.666,512h337.4c3.01,0,5.74-1.76,6.982-4.5C353.291,504.759,352.815,501.544,350.832,499.282z"/>
<path style="opacity:0.1;fill:#231F20;enable-background:new    ;" d="M17.523,504.111V436.41c0-1.496,0.387-2.932,1.065-4.208
	c-4.962,2.41-9.861,4.964-14.678,7.673C1.494,441.233,0,443.788,0,446.558v57.776C0,508.568,3.432,512,7.666,512h14.54
	C19.417,510.476,17.523,507.515,17.523,504.111z"/>
<path style="fill:#85C8EB;" d="M262.193,12.03h-86.084c-10.136,0-18.352,8.216-18.352,18.353c0,3.403,0.941,6.579,2.556,9.311
	h-38.23c-10.138,0-18.354,8.216-18.354,18.353c0,10.135,8.216,18.351,18.354,18.351h52.017h23.26h10.804
	c10.139,0,18.352-8.216,18.352-18.351c0-3.406-0.942-6.58-2.557-9.312h38.233c10.137,0,18.351-8.217,18.351-18.352
	C280.544,20.246,272.33,12.03,262.193,12.03z"/>
<g>
	<path style="fill:#FFA233;" d="M396.261,115.739c6.469,6.471,15.408,10.474,25.282,10.474c19.749,0,35.759-16.009,35.759-35.758
		s-16.009-35.757-35.759-35.757c-19.747,0-35.757,16.008-35.757,35.757C385.786,100.329,389.789,109.268,396.261,115.739"/>
	<path style="fill:#FFA233;" d="M503.786,98.67h-23.242c-4.537,0-8.214-3.677-8.214-8.214c0-4.537,3.677-8.214,8.214-8.214h23.242
		c4.536,0,8.214,3.677,8.214,8.214C512,94.992,508.322,98.67,503.786,98.67z"/>
	<path style="fill:#FFA233;" d="M362.544,98.67h-23.243c-4.536,0-8.214-3.677-8.214-8.214c0-4.537,3.678-8.214,8.214-8.214h23.243
		c4.537,0,8.214,3.677,8.214,8.214C370.758,94.992,367.082,98.67,362.544,98.67z"/>
	<path style="fill:#FFA233;" d="M463.264,56.951c-2.102,0-4.204-0.802-5.809-2.405c-3.208-3.208-3.208-8.409,0-11.616l16.435-16.437
		c3.208-3.209,8.409-3.208,11.617-0.001c3.209,3.208,3.209,8.409,0.001,11.616l-16.435,16.437
		C467.469,56.149,465.366,56.951,463.264,56.951z"/>
	<path style="fill:#FFA233;" d="M363.39,156.824c-2.103,0-4.204-0.802-5.808-2.405c-3.209-3.208-3.209-8.409-0.001-11.616
		l16.435-16.437c3.208-3.209,8.409-3.208,11.617-0.001c3.208,3.208,3.208,8.409,0,11.616l-16.435,16.437
		C367.594,156.023,365.492,156.824,363.39,156.824z"/>
	<path style="fill:#FFA233;" d="M421.543,39.669L421.543,39.669c-4.537,0-8.214-3.678-8.214-8.214l0.001-23.241
		c0-4.537,3.678-8.214,8.214-8.214l0,0c4.536,0,8.214,3.678,8.214,8.214l-0.001,23.241
		C429.757,35.991,426.079,39.669,421.543,39.669z"/>
	<path style="fill:#FFA233;" d="M421.543,180.913c-4.537,0-8.214-3.678-8.214-8.214v-23.243c0-4.537,3.677-8.214,8.214-8.214
		c4.537,0,8.214,3.677,8.214,8.214v23.243C429.757,177.235,426.08,180.913,421.543,180.913z"/>
	<path style="fill:#FFA233;" d="M379.825,56.951c-2.102,0-4.204-0.802-5.809-2.405L357.582,38.11c-3.209-3.209-3.209-8.409,0-11.617
		c3.207-3.207,8.409-3.207,11.614,0l16.437,16.435c3.208,3.209,3.208,8.409,0,11.617C384.028,56.149,381.927,56.951,379.825,56.951z
		"/>
	<path style="fill:#FFA233;" d="M479.7,156.825c-2.103,0-4.204-0.802-5.808-2.405l-16.437-16.435c-3.208-3.209-3.208-8.409,0-11.618
		c3.209-3.207,8.409-3.207,11.617,0l16.434,16.435c3.209,3.209,3.209,8.409,0,11.617C483.904,156.024,481.802,156.825,479.7,156.825
		z"/>
</g>
<g>
	<path style="fill:#8C6644;" d="M97.754,356.252l-9.815,6.271V244.878c0-4.537-3.677-8.214-8.214-8.214
		c-4.537,0-8.214,3.677-8.214,8.214v29.002l-10.514-6.717c-3.823-2.441-8.903-1.323-11.344,2.499
		c-2.441,3.823-1.323,8.902,2.499,11.344l19.359,12.368v155.224c0,4.536,3.677,8.214,8.214,8.214c4.537,0,8.214-3.678,8.214-8.214
		v-66.581l18.66-11.922c3.822-2.442,4.943-7.521,2.499-11.344C106.656,354.929,101.576,353.81,97.754,356.252z"/>
	<path style="fill:#8C6644;" d="M102.177,460.464H56.363c-4.537,0-8.214-3.677-8.214-8.214c0-4.536,3.677-8.214,8.214-8.214h45.814
		c4.537,0,8.214,3.678,8.214,8.214C110.39,456.787,106.713,460.464,102.177,460.464z"/>
</g>
<path style="fill:#2DA555;" d="M492.225,381.194c-3.04,0-5.956,0.526-8.669,1.484c-0.503-22.555-18.93-40.685-41.604-40.685
	c-20.452,0-37.446,14.752-40.954,34.194c-6.017-5.923-14.268-9.579-23.378-9.579c-17.64,0-32.07,13.705-33.244,31.049
	c-1.604-0.43-3.282-0.681-5.023-0.681c-10.709,0-19.39,8.682-19.39,19.391c0,10.709,8.682,19.39,19.39,19.39h164.434v-37.365
	C503.786,382.512,492.225,381.194,492.225,381.194z"/>
<g>
</g>
<g>
</g>
<g>
</g>
<g>
</g>
<g>
</g>
<g>
</g>
<g>
</g>
<g>
</g>
<g>
</g>
<g>
</g>
<g>
</g>
<g>
</g>
<g>
</g>
<g>
</g>
<g>
</g>
</svg>
