<svg id="Layer_2" height="512" viewBox="0 0 512 512" width="512" xmlns="http://www.w3.org/2000/svg" data-name="Layer 2"><path d="m56 208h400v272h-400z" fill="#f2c033"/><path d="m56.22 208h399.78v40h-399.78z" fill="#e2aa2d"/><path d="m88 208a28 28 0 0 1 -56 0" fill="#f9d375"/><path d="m144 208a28 28 0 0 1 -56 0" fill="#8225e5"/><path d="m200 208a28 28 0 0 1 -56 0" fill="#f9d375"/><path d="m256 208a28 28 0 0 1 -56 0" fill="#8225e5"/><path d="m312 208a28 28 0 0 1 -56 0" fill="#f9d375"/><path d="m368 208a28 28 0 0 1 -56 0" fill="#8225e5"/><path d="m424 208a28 28 0 0 1 -56 0" fill="#f9d375"/><path d="m480 208a28 28 0 0 1 -56 0" fill="#8225e5"/><path d="m256 312h120v168h-120z" fill="#f4e9ce"/><path d="m104 312h88v88h-88z" fill="#f4e9ce"/><path d="m184 312-80 56v-56z" fill="#fff" opacity=".3"/><path d="m336 312h40l-120 160v-160z" fill="#fff" opacity=".3"/><path d="m480 208h-448l24-96h400z" fill="#f9d375"/><path d="m120 32h272v48h-272z" fill="#f2c033"/><path d="m144 112h56v96h-56z" fill="#8225e5"/><path d="m56 112-24 96h56l8-96z" fill="#8225e5"/><path d="m256 112h56v96h-56z" fill="#8225e5"/><path d="m368 112v96h56l-8-96z" fill="#8225e5"/><path d="m460.627 130.509-4.627-18.509h-400l-15.938 63.751c226.32-7.234 379.081-36.459 420.565-45.242z" fill="#fff" opacity=".2"/><g fill="#1a063f"><path d="m487.761 206.06-24-96a8 8 0 0 0 -7.761-6.06h-104v-16h40a8 8 0 0 0 8-8v-48a8 8 0 0 0 -8-8h-272a8 8 0 0 0 -8 8v48a8 8 0 0 0 8 8h40v16h-104a8 8 0 0 0 -7.761 6.06l-24 96a7.993 7.993 0 0 0 -.232 1.94h-.007a36.057 36.057 0 0 0 24 33.936v230.064h-16v16h448v-16h-16v-230.064a36.057 36.057 0 0 0 24-33.936h-.006a7.987 7.987 0 0 0 -.233-1.94zm-18.007-6.06h-38.393l-6.667-80h25.06zm-109.754 0h-40v-80h40zm16-80h32.639l6.667 80h-39.306zm-72 80h-40v-80h40zm-56 0h-40v-80h40zm-56 0h-40v-80h40zm-56 0h-39.306l6.667-80h32.639zm-1.682 16a19.982 19.982 0 0 1 -36.637 0zm56 0a19.982 19.982 0 0 1 -36.637 0zm56 0a19.982 19.982 0 0 1 -36.637 0zm56 0a19.982 19.982 0 0 1 -36.637 0zm56 0a19.982 19.982 0 0 1 -36.637 0zm56 0a19.982 19.982 0 0 1 -36.637 0zm-286.318-176h256v32h-256zm48 48h160v16h-160zm-113.754 32h25.06l-6.667 80h-38.393zm-20.564 96h36.636a19.982 19.982 0 0 1 -36.637 0zm326.318 256h-104v-152h104zm16 0v-160a8 8 0 0 0 -8-8h-120a8 8 0 0 0 -8 8v160h-184v-228.228a35.978 35.978 0 0 0 24-13.18 35.941 35.941 0 0 0 56 0 35.941 35.941 0 0 0 56 0 35.941 35.941 0 0 0 56 0 35.941 35.941 0 0 0 56 0 35.941 35.941 0 0 0 56 0 35.941 35.941 0 0 0 56 0 35.978 35.978 0 0 0 24 13.18v228.228zm68-244a20.021 20.021 0 0 1 -18.318-12h36.637a20.021 20.021 0 0 1 -18.319 12z"/><path d="m192 304h-88a8 8 0 0 0 -8 8v88a8 8 0 0 0 8 8h88a8 8 0 0 0 8-8v-88a8 8 0 0 0 -8-8zm-8 88h-72v-72h72z"/><path d="m256 264h120v16h-120z"/><path d="m80 440h24v16h-24z"/><path d="m120 440h24v16h-24z"/><path d="m328 368h16v48h-16z"/></g></svg>